<svg xmlns="http://www.w3.org/2000/svg" width="216.925" height="52.123" viewBox="0 0 216.925 52.123"><g transform="translate(0 0)"><path d="M516.469,25.609V.2H488.5Z" transform="translate(-299.544 -0.2)" fill="#2c71b9"/><g transform="translate(0 6.811)"><path d="M22,36.439a9.509,9.509,0,0,0,4.616-2.858,7.125,7.125,0,0,0,1.59-4.694A8.009,8.009,0,0,0,24.83,21.9c-2.25-1.623-5.47-2.4-9.62-2.4H1.4V54.755H16.025c4.384,0,7.758-.847,10.086-2.506a8.429,8.429,0,0,0,3.53-7.234,8.013,8.013,0,0,0-1.94-5.505,10.219,10.219,0,0,0-5.7-3.07m-7.1-12.1a9.465,9.465,0,0,1,5.353,1.27,4.216,4.216,0,0,1,1.9,3.67,4.091,4.091,0,0,1-1.9,3.67,9.465,9.465,0,0,1-5.353,1.27H7.49V24.335H14.9Zm.737,25.479H7.49V38.874h8.146a9.923,9.923,0,0,1,5.78,1.412,4.615,4.615,0,0,1,2.017,4.023,4.677,4.677,0,0,1-2.017,4.058,9.654,9.654,0,0,1-5.78,1.447M48.106,28.57a22.875,22.875,0,0,0-6.052.776,16.251,16.251,0,0,0-5.082,2.294L39.8,35.557a16.678,16.678,0,0,1,4-1.8,14.372,14.372,0,0,1,4.19-.635,7.412,7.412,0,0,1,4.577,1.235,4.185,4.185,0,0,1,1.59,3.6V38.98h-5.2c-4.461,0-7.836.706-10.125,2.153a7.073,7.073,0,0,0-3.452,6.282A7,7,0,0,0,38.136,53.2a11.652,11.652,0,0,0,7.37,2.153,11.427,11.427,0,0,0,5.47-1.2,7.749,7.749,0,0,0,3.414-3.388l.116.141v3.776H59.86V37.392a7.788,7.788,0,0,0-2.987-6.564c-1.978-1.517-4.927-2.259-8.767-2.259M46.9,51.155a6.733,6.733,0,0,1-4.073-1.094,3.376,3.376,0,0,1-1.513-2.894c0-2.717,2.677-4.094,8.069-4.094H54.2v1.764A5.78,5.78,0,0,1,52.3,49.5,8.031,8.031,0,0,1,46.9,51.155m36.814-1.517a14.8,14.8,0,0,1-2.172.882,7.653,7.653,0,0,1-1.978.282,3.54,3.54,0,0,1-2.638-.953A3.9,3.9,0,0,1,76,47.026V33.4h8.03V29.24H76V21.864H70.256V29.2H64.98v4.164h5.276V47.732a7.29,7.29,0,0,0,2.172,5.646,9.069,9.069,0,0,0,6.246,1.976,14.8,14.8,0,0,0,4-.459,13.767,13.767,0,0,0,3.414-1.517Zm23.857,0a14.8,14.8,0,0,1-2.172.882,7.653,7.653,0,0,1-1.978.282,3.481,3.481,0,0,1-2.638-.953,3.9,3.9,0,0,1-.931-2.823V33.4h8.03V29.24h-8.03V21.864H94.113V29.2H88.837v4.164h5.276V47.732a7.29,7.29,0,0,0,2.172,5.646,9.069,9.069,0,0,0,6.246,1.976,14.8,14.8,0,0,0,4-.459,13.767,13.767,0,0,0,3.414-1.517Zm32.779-7.728a14.083,14.083,0,0,0-1.707-6.987,11.889,11.889,0,0,0-4.771-4.694,16.693,16.693,0,0,0-14.508,0,11.765,11.765,0,0,0-4.81,4.694,13.684,13.684,0,0,0-1.707,6.987c0,4.129,1.319,7.411,4,9.811s6.284,3.635,10.9,3.635c4.927,0,8.728-1.129,11.444-3.423l-3.026-3.67a14,14,0,0,1-8.418,2.576,9.433,9.433,0,0,1-6.168-1.906,7.946,7.946,0,0,1-2.793-5.329h21.568Zm-13.732-8.893a7.549,7.549,0,0,1,5.159,1.8,8.285,8.285,0,0,1,2.677,4.941H118.785a8.409,8.409,0,0,1,2.6-4.941,7.753,7.753,0,0,1,5.237-1.8m34.021-4.447a7.984,7.984,0,0,0-4.694,1.376,8.207,8.207,0,0,0-2.987,3.882V29.24H147.53V54.719h5.78V39.651a5.88,5.88,0,0,1,1.862-4.658,6.94,6.94,0,0,1,4.771-1.623,14.892,14.892,0,0,1,3.22.388l.737-4.8a10.759,10.759,0,0,0-3.259-.388m30.335.671-7.952,18.668L174.762,29.24h-6.517l11.832,25.091-1.435,3.211a4.829,4.829,0,0,1-1.9,2.223,6.782,6.782,0,0,1-3.22.671h-3.026v4.376H174.8a9.763,9.763,0,0,0,5.664-1.447,10.811,10.811,0,0,0,3.53-4.658L197.261,29.24h-6.284Z" transform="translate(-1.4 -19.5)" fill="#b7b7b7"/></g></g></svg>