<svg width="605.213" height="221.993" aria-hidden="true" xmlns="http://www.w3.org/2000/svg" viewBox="-305.5 681.226 605.213 221.993"><path d="M299.713 903.218h-99.587l-34.634-73.885H96.887l4.702-12.63h58.037l-36.848-78.892 23.734-56.583h32.864l75.355 160.012c10.566 22.42 24.01 53.355 44.98 61.978zm-302.136-8.512v-97.254s24.897 7.512 49.793 44.01V742.93c-24.952 37.108-49.793 42.394-49.793 42.394v-95.582c53.777 0 79.338 25.87 92.837 49.35l24.564-57.863H-111.86c20.583 14.52 35.465 27.15 35.465 77.892V903.22h191.373l-25.45-53.744c-14.55 22.586-42.214 45.23-91.95 45.23zM-305.5 681.228c15.436 8.902 37.345 23.37 37.345 68.602v87.182c0 48.404-35.077 66.096-35.077 66.096h81.33s-35.078-17.525-35.078-66.096V725.015l162.88 178.76v-112.22L-194.85 681.23H-305.5zm537.438 24.648h-4.646v-16.414h6.307c2.992-.617 5.917 1.32 6.532 4.332.057.277.092.56.106.844a4.45 4.45 0 0 1-2.987 4.395l3.93 6.732h-4.482l-3.596-5.787h-1.163v5.898zm0-8.902h1.495a1.992 1.992 0 0 0 2.378-2.004 1.94 1.94 0 0 0-2.377-1.89h-1.495v3.894zm-15.436.945c0-9.218 7.428-16.692 16.594-16.694.112 0 .224 0 .336.002 9.165.186 16.446 7.807 16.262 17.02-.184 9.218-7.76 16.54-16.926 16.356-9.035-.18-16.264-7.597-16.266-16.685zm3.21 0c0 7.68 6.19 13.91 13.83 13.91s13.833-6.23 13.833-13.91-6.193-13.91-13.832-13.91c-7.64 0-13.832 6.227-13.832 13.91z"></path></svg>