<svg xmlns="http://www.w3.org/2000/svg" width="177.173" height="51" viewBox="0 0 177.173 51"><path d="M2981,678.5v51h-14.811V693.311H2930V678.5Z" transform="translate(-2930 -678.5)" fill="#c0d4ff"/><path d="M2966.189,689.1v36.189h-11.038V700.138H2930v-10.9h36.189Z" transform="translate(-2930 -674.289)" fill="#7ba4ff"/><rect width="25.151" height="25.151" transform="translate(0 25.71)" fill="#003adc"/><g transform="translate(62.318 15.076)"><path d="M44.6,21.8l1.816-.419a3.272,3.272,0,0,0,3.493,2.934c1.956,0,2.934-.978,2.934-2.375s-.838-2.1-3.353-3.074c-2.934-1.118-4.052-2.236-4.052-4.192,0-2.236,1.677-3.773,4.332-3.773a4.334,4.334,0,0,1,4.192,2.515l-1.537.978a3.057,3.057,0,0,0-2.795-1.816,2.221,2.221,0,0,0-2.375,2.1c0,1.258.978,1.816,3.214,2.795,3.214,1.258,4.192,2.375,4.192,4.471,0,2.515-1.816,4.192-4.89,4.192A5.265,5.265,0,0,1,44.6,21.8Z" transform="translate(-44.6 -10.76)" fill="#1e1d1d"/><path d="M53.4,18.345c0-4.611,2.655-7.545,6.847-7.545a6.1,6.1,0,0,1,6.148,4.052l-1.677.7a4.308,4.308,0,0,0-4.471-2.934c-3.214,0-5.03,2.1-5.03,5.729s1.816,5.868,4.89,5.868a4.264,4.264,0,0,0,4.471-3.074l1.816.7a6.336,6.336,0,0,1-6.288,4.192C55.915,26.03,53.4,23.1,53.4,18.345Z" transform="translate(-41.104 -10.8)" fill="#1e1d1d"/><path d="M72.662,22.038H66.653L65.4,25.671H63.3L68.889,11h1.4l5.589,14.671h-2.1ZM72.1,20.362l-2.375-6.567-2.375,6.567Z" transform="translate(-37.171 -10.721)" fill="#1e1d1d"/><path d="M74.4,11h1.816V23.855h6.567v1.677H74.4Z" transform="translate(-32.762 -10.721)" fill="#1e1d1d"/><path d="M82.3,11h9.641v1.677H84.116v4.611h7.126v1.677H84.116v4.89h7.825v1.677H82.3Z" transform="translate(-29.623 -10.721)" fill="#1e1d1d"/></g><g transform="translate(132.879 15.216)"><path d="M104.462,22.038H98.453L97.2,25.671H95.1L100.689,11h1.4l5.589,14.671h-2.1Zm-.7-1.677-2.375-6.567-2.375,6.567Z" transform="translate(-95.1 -10.86)" fill="#1e1d1d"/><path d="M105,21.8l1.816-.419a3.272,3.272,0,0,0,3.493,2.934c1.956,0,2.934-.978,2.934-2.375s-.838-2.1-3.353-3.074c-2.934-1.118-4.052-2.236-4.052-4.192,0-2.236,1.677-3.773,4.332-3.773a4.468,4.468,0,0,1,4.192,2.515l-1.537.978a3.057,3.057,0,0,0-2.795-1.816,2.221,2.221,0,0,0-2.375,2.1c0,1.258.978,1.816,3.214,2.795,3.214,1.258,4.192,2.375,4.192,4.471,0,2.515-1.816,4.192-4.89,4.192A5.265,5.265,0,0,1,105,21.8Z" transform="translate(-91.167 -10.9)" fill="#1e1d1d"/><path d="M114.5,11h1.816V25.671H114.5Z" transform="translate(-87.393 -10.86)" fill="#1e1d1d"/><path d="M127.162,22.038h-6.008L119.9,25.671h-2.1L123.389,11h1.4l5.589,14.671h-2.1Zm-.559-1.677-2.375-6.567-2.375,6.567Z" transform="translate(-86.082 -10.86)" fill="#1e1d1d"/></g><g transform="translate(61.34 38.69)"><path d="M54.1,27.8,49.768,38.559H48.232L43.9,27.8h2.375l2.655,7.126L51.585,27.8Z" transform="translate(-43.9 -27.66)" fill="#1e1d1d"/><path d="M56,27.8h7.126v1.956H58.1v2.236h4.751v1.956H58.1v2.515h5.03v1.956H56Z" transform="translate(-39.093 -27.66)" fill="#1e1d1d"/><path d="M75.263,27.8V38.559H73.027l-4.192-6.986v6.986H66.6V27.8h2.236l4.332,6.986V27.8Z" transform="translate(-34.882 -27.66)" fill="#1e1d1d"/><path d="M80.914,29.756H77.7V27.8h8.663v1.956H83.149v8.663H80.914Z" transform="translate(-30.473 -27.66)" fill="#1e1d1d"/><path d="M88.6,34.647V27.8h2.236v6.567c0,1.677.419,2.375,1.956,2.375s1.956-.7,1.956-2.375V27.8h2.236v6.707q0,4.192-4.192,4.192C90,38.838,88.6,37.441,88.6,34.647Z" transform="translate(-26.142 -27.66)" fill="#1e1d1d"/><path d="M105.789,38.559l-2.515-4.332H102.3v4.332h-2.1V27.8h3.633c2.655,0,3.633,1.258,3.633,3.074a2.8,2.8,0,0,1-1.956,2.934l2.934,4.611h-2.655Zm-2.236-6.427c.978,0,1.677-.14,1.677-1.258,0-.978-.7-1.118-1.677-1.118H102.3v2.375h1.258Z" transform="translate(-21.534 -27.66)" fill="#1e1d1d"/><path d="M110.9,27.8h7.126v1.956H113v2.236h4.751v1.956H113v2.515h5.03v1.956H110.9Z" transform="translate(-17.284 -27.66)" fill="#1e1d1d"/><path d="M120.7,35.525l2.1-.559a2.023,2.023,0,0,0,2.1,1.956c.978,0,1.537-.419,1.537-1.258,0-.559-.559-.978-1.956-1.677-2.236-.838-3.074-1.677-3.074-3.353,0-1.816,1.4-2.934,3.353-2.934a3.612,3.612,0,0,1,3.353,1.956l-1.816,1.118a1.728,1.728,0,0,0-1.537-1.258,1,1,0,0,0-1.118.978c0,.559.419.978,2.1,1.677,2.236.838,3.074,1.677,3.074,3.214a3.53,3.53,0,0,1-3.773,3.493A4.258,4.258,0,0,1,120.7,35.525Z" transform="translate(-13.39 -27.7)" fill="#1e1d1d"/></g></svg>